<svg width="512" height="512" viewBox="0 0 512 512" fill="none" xmlns="http://www.w3.org/2000/svg">
  <defs>
    <linearGradient id="bg" x1="0" y1="0" x2="512" y2="512" gradientUnits="userSpaceOnUse">
      <stop offset="0" stop-color="#0F61FF" />
      <stop offset="1" stop-color="#146FFF" />
    </linearGradient>
  </defs>
  <rect x="16" y="16" width="400" height="400" rx="104" fill="url(#bg)"></rect>
  <rect x="360" y="32" width="96" height="96" rx="20" fill="#8D8D8D" />
  <rect x="416" y="136" width="80" height="80" rx="18" fill="#E2E2E2" />
  <rect x="456" y="88" width="72" height="72" rx="18" fill="#B5B5B5" />
  <g transform="translate(56 156) scale(1.15)" fill="#F9F9F9">
    <path d="M64 188c-26-23-44-58-44-99 0-71 51-116 109-116 38 0 69 17 92 38 8 7 8 17 1 25-7 7-17 7-25 0-19-17-40-28-68-28-41 0-75 34-75 81 0 30 12 57 33 77 8 8 7 19-1 26-8 7-19 7-26 0Z" />
    <path d="M206 188c-12 0-20-11-16-22l28-76c-14 8-31 12-48 12-17 0-33-5-46-14-8-6-11-17-4-25 6-8 17-9 25-3 8 6 17 9 27 9 19 0 36-7 45-18 5-6 13-8 21-5 7 3 12 10 12 18 0 4-1 8-2 11l-38 106c-3 9-11 15-20 15Z" />
    <path d="M268 204c-10 0-18-8-18-18 0-3 1-6 2-8l38-102c3-8 10-13 19-13s17 5 19 13l34 86 28-78c3-8 11-13 19-13 10 0 18 8 18 18 0 3-1 6-2 9l-44 118c-3 8-10 13-18 13-9 0-16-5-19-13l-31-82-30 82c-3 8-10 13-17 13Z" />
    <path d="M420 206c-11 0-20-9-20-20v-44h-32c-11 0-20-9-20-20s9-20 20-20h32v-32c0-11 9-20 20-20s20 9 20 20v32h32c11 0 20 9 20 20s-9 20-20 20h-32v44c0 11-9 20-20 20Z" />
  </g>
</svg>
